<svg width="22" height="23" viewBox="0 0 22 23" fill="none" xmlns="http://www.w3.org/2000/svg">
<path d="M9.11039 12.9828C7.01091 10.8681 6.5375 8.74998 6.42943 7.90515C6.41478 7.78951 6.42673 7.67203 6.46435 7.56178C6.50198 7.45154 6.56427 7.35149 6.64642 7.26937L8.34538 5.55897C8.46662 5.43681 8.54321 5.2769 8.56267 5.10529C8.58214 4.93368 8.54334 4.76049 8.45259 4.61393L5.7459 0.381995C5.64577 0.221048 5.48975 0.103406 5.30822 0.0519863C5.12669 0.000566635 4.93265 0.0190515 4.76391 0.10384L0.420867 2.16409C0.282628 2.23252 0.16855 2.34201 0.094019 2.47779C0.019488 2.61356 -0.0119106 2.76909 0.00405813 2.9234C0.231331 5.09682 1.17387 10.4526 6.39684 15.7142C11.6198 20.9759 16.9328 21.9244 19.0958 22.1533C19.249 22.1694 19.4034 22.1377 19.5382 22.0627C19.673 21.9876 19.7817 21.8727 19.8497 21.7334L21.8951 17.3633C21.9792 17.1936 21.9977 16.9985 21.947 16.8159C21.8962 16.6333 21.7799 16.4762 21.6207 16.3751L17.4183 13.6505C17.273 13.5587 17.101 13.5193 16.9305 13.5388C16.7601 13.5582 16.6012 13.6354 16.48 13.7576L14.7819 15.4629C14.7003 15.5455 14.601 15.6083 14.4916 15.6461C14.3821 15.684 14.2655 15.6961 14.1507 15.6814C13.3094 15.5734 11.2099 15.0957 9.11039 12.9811V12.9828Z" fill="white"/>
<path d="M17.448 11.8441C17.2467 11.8441 17.0537 11.7635 16.9113 11.6201C16.769 11.4768 16.689 11.2823 16.689 11.0796C16.6874 9.56033 16.0876 8.10377 15.0211 7.02942C13.9547 5.95508 12.5087 5.3507 11.0003 5.34887C10.8986 5.35232 10.7972 5.33511 10.7021 5.29826C10.6071 5.26141 10.5204 5.20569 10.4472 5.1344C10.374 5.06311 10.3158 4.97771 10.2761 4.88329C10.2363 4.78887 10.2158 4.68737 10.2158 4.58481C10.2158 4.48225 10.2363 4.38074 10.2761 4.28632C10.3158 4.1919 10.374 4.10651 10.4472 4.03522C10.5204 3.96393 10.6071 3.9082 10.7021 3.87136C10.7972 3.83451 10.8986 3.8173 11.0003 3.82074C12.9101 3.82371 14.7408 4.58916 16.0911 5.94932C17.4415 7.30949 18.2015 9.15341 18.2044 11.077C18.2049 11.1774 18.1857 11.2769 18.1479 11.3699C18.1101 11.4628 18.0545 11.5473 17.9842 11.6186C17.9139 11.6898 17.8304 11.7464 17.7384 11.7851C17.6464 11.8238 17.5477 11.8438 17.448 11.8441Z" fill="white"/>
<path d="M21.2405 11.8436C21.1408 11.8436 21.0422 11.8239 20.9501 11.7854C20.8581 11.747 20.7745 11.6907 20.7041 11.6197C20.6337 11.5487 20.5778 11.4644 20.5398 11.3716C20.5017 11.2789 20.4822 11.1795 20.4823 11.0791C20.4794 8.54708 19.4794 6.11958 17.7018 4.32914C15.9243 2.5387 13.5142 1.53153 11.0003 1.52856C10.8986 1.53201 10.7972 1.51479 10.7021 1.47795C10.6071 1.4411 10.5204 1.38537 10.4472 1.31408C10.374 1.24279 10.3158 1.1574 10.2761 1.06298C10.2363 0.968563 10.2158 0.867053 10.2158 0.764495C10.2158 0.661938 10.2363 0.560428 10.2761 0.46601C10.3158 0.371592 10.374 0.286196 10.4472 0.214906C10.5204 0.143616 10.6071 0.087889 10.7021 0.051043C10.7972 0.0141969 10.8986 -0.00301501 11.0003 0.000431944C13.9165 0.00363308 16.7123 1.17188 18.7744 3.24884C20.8364 5.32581 21.9963 8.14186 21.9995 11.0791C21.9996 11.1796 21.98 11.279 21.9419 11.3718C21.9038 11.4646 21.8479 11.549 21.7774 11.62C21.7069 11.691 21.6232 11.7473 21.5311 11.7857C21.4389 11.824 21.3402 11.8437 21.2405 11.8436Z" fill="white"/>
</svg>
