<svg width="31" height="31" viewBox="0 0 31 31" fill="none" xmlns="http://www.w3.org/2000/svg">
<circle cx="15.5" cy="15.5" r="14" stroke="white" stroke-width="3"/>
<path d="M21.0031 7.49615L18.2156 7.49121C15.0829 7.49121 13.0585 9.61233 13.0585 12.8949V15.3867H10.2557C10.1393 15.3867 10.0277 15.4339 9.94541 15.518C9.86312 15.602 9.8169 15.716 9.8169 15.8348V19.4444C9.81679 19.5033 9.82807 19.5616 9.85008 19.6161C9.87209 19.6705 9.90441 19.7199 9.94517 19.7616C9.98594 19.8032 10.0343 19.8362 10.0876 19.8587C10.1409 19.8812 10.198 19.8927 10.2557 19.8926H13.0585V29.0014C13.0584 29.0603 13.0696 29.1186 13.0917 29.173C13.1137 29.2275 13.146 29.2769 13.1867 29.3185C13.2275 29.3602 13.2759 29.3932 13.3292 29.4157C13.3825 29.4381 13.4396 29.4497 13.4972 29.4495H17.1566C17.2729 29.4493 17.3842 29.402 17.4664 29.318C17.5485 29.234 17.5946 29.1201 17.5946 29.0014V19.8926H20.8725C20.93 19.8926 20.9871 19.881 21.0402 19.8584C21.0934 19.8359 21.1418 19.8029 21.1824 19.7613C21.2231 19.7196 21.2554 19.6702 21.2773 19.6159C21.2993 19.5615 21.3105 19.5033 21.3104 19.4444V15.8348C21.3105 15.776 21.2993 15.7176 21.2772 15.6632C21.2552 15.6088 21.2229 15.5594 21.1821 15.5177C21.1414 15.4761 21.093 15.4431 21.0397 15.4206C20.9864 15.3981 20.9293 15.3866 20.8717 15.3867H17.593V13.2747C17.593 12.2598 17.8301 11.7442 19.1254 11.7442H21.0039C21.0615 11.7442 21.1185 11.7326 21.1717 11.71C21.2249 11.6875 21.2732 11.6545 21.3139 11.6129C21.3546 11.5712 21.3868 11.5218 21.4088 11.4675C21.4308 11.4131 21.442 11.3549 21.4419 11.296V7.94344C21.4419 7.88463 21.4305 7.8264 21.4085 7.77208C21.3864 7.71776 21.3541 7.66841 21.3133 7.62687C21.2726 7.58532 21.2242 7.55239 21.171 7.52996C21.1177 7.50753 21.0607 7.49605 21.0031 7.49615Z" fill="white"/>
</svg>
