<svg width="72" height="54" viewBox="0 0 72 54" fill="none" xmlns="http://www.w3.org/2000/svg">
<path d="M63.5617 0H8.43826C6.20109 0.00259791 4.05629 0.8967 2.47437 2.48616C0.892445 4.07563 0.00258558 6.23066 0 8.4785L0 44.6624C0.00258672 46.91 0.892524 49.0648 2.47451 50.6539C4.05651 52.243 6.20131 53.1365 8.43826 53.1385H63.5617C65.7987 53.1365 67.9435 52.243 69.5255 50.6539C71.1075 49.0648 71.9974 46.91 72 44.6624V8.4785C71.9974 6.23066 71.1076 4.07563 69.5256 2.48616C67.9437 0.8967 65.7989 0.00259791 63.5617 0V0ZM66.3753 44.6624C66.374 45.4116 66.0771 46.1296 65.5497 46.6591C65.0222 47.1886 64.3073 47.4863 63.5617 47.487H8.43826C8.06846 47.4876 7.70215 47.4151 7.36025 47.2735C7.01835 47.1319 6.70756 46.924 6.44561 46.6617C6.18367 46.3994 5.9757 46.0879 5.83359 45.7448C5.69148 45.4018 5.61801 45.034 5.61737 44.6624V8.4785C5.61705 8.1062 5.68979 7.73749 5.83144 7.39346C5.97309 7.04944 6.18086 6.73685 6.44287 6.4736C6.70488 6.21034 7.01598 6.00157 7.35837 5.85925C7.70077 5.71692 8.06773 5.64383 8.43826 5.64415H63.5617C64.3075 5.64545 65.0224 5.94371 65.5498 6.47359C66.0772 7.00347 66.374 7.72177 66.3753 8.47114V44.6624Z" fill="white"/>
<path d="M65.8965 3.52539L35.9999 25.8689L6.10333 3.52539L2.74512 8.06035L35.9999 32.9118L69.2548 8.06035L65.8965 3.52539Z" fill="white"/>
</svg>
