<svg id="Capa_1" data-name="Capa 1" xmlns="http://www.w3.org/2000/svg" viewBox="0 0 442.83375 123.12"><defs><style>.cls-1{font-size:10px;font-family:OpenSans-Bold, Open Sans;font-weight:700;}.cls-1,.cls-12,.cls-14,.cls-16,.cls-3,.cls-5{fill:#303030;}.cls-2{font-size:7px;fill:#4c4d4d;font-family:OpenSans, Open Sans;}.cls-3{stroke:#303030;stroke-width:0.5px;}.cls-10,.cls-11,.cls-12,.cls-13,.cls-14,.cls-15,.cls-16,.cls-3,.cls-8,.cls-9{stroke-miterlimit:10;}.cls-11,.cls-13,.cls-15,.cls-4{fill:#25c4c7;}.cls-10,.cls-6,.cls-8,.cls-9{fill:#2f2f2f;}.cls-7{fill:#fff;}.cls-10,.cls-12,.cls-8,.cls-9{stroke:#fff;}.cls-8{stroke-width:0.49988px;}.cls-9{stroke-width:0.25px;}.cls-11,.cls-13,.cls-15,.cls-16{stroke:#25c4c7;}.cls-12,.cls-13{stroke-width:0.1px;fill-rule:evenodd;}.cls-14{stroke:#fffdfe;stroke-width:0.53491px;}.cls-15{stroke-width:0.32922px;}.cls-16{stroke-width:0.26746px;}</style></defs><text class="cls-1" transform="translate(26.1402 68.57254)">PASO 1</text><text class="cls-2" transform="translate(8.68903 82.39604)">Agrega tus productos <tspan x="20.48047" y="8.40039">al carrito</tspan></text><text class="cls-1" transform="translate(114.18133 68.57254)">PASO 2</text><text class="cls-2" transform="translate(103.62957 82.39604)">Realiza tu pedido</text><text class="cls-1" transform="translate(203.56391 68.57254)">PASO 3</text><text class="cls-2" transform="translate(193.36078 82.39604)">Te enviaremos la <tspan x="-4.08984" y="8.39941">cotización así como </tspan><tspan x="1.03223" y="16.7998">instrucciones de </tspan><tspan x="19.55566" y="25.19922">pago</tspan></text><text class="cls-1" transform="translate(291.71363 68.57254)">PASO 4</text><text class="cls-2" transform="translate(281.76343 82.39604)">Realiza tu pago y <tspan x="8.50391" y="8.40039">envianos tu </tspan><tspan x="5.26367" y="16.80078">comprobante</tspan></text><text class="cls-1" transform="translate(378.7743 68.57254)">PASO 5</text><text class="cls-2" transform="translate(362.42566 82.39604)">Tu orden llegará a tu <tspan x="18.98828" y="8.40039">domicilio</tspan></text><path class="cls-3" d="M403.6204,25.92l.07,5.29,3.68-1.79v-5.4Zm3.5,3.34-3.18,1.55-.07-4.74,3.25-1.64Zm-16.65-13.48-4.31006,2.12,17.44006,8,3.76-1.9Zm-3.73,2.11,3.73-1.84,16.32006,7.96-3.19006,1.61Z"/><path class="cls-3" d="M413.51041,20.95v-.02c-.01-.02-.03-.04-.04-.06,0-.01-.01-.01-.01-.02-.02-.01-.04-.03-.06006-.04a.0098.0098,0,0,0-.01-.01.00977.00977,0,0,1-.00989-.01l-16.75-8.24a.30511.30511,0,0,0-.2301,0l-16.75,8.24-.01.01c-.00989,0-.00989,0-.00989.01-.02.01-.04.03-.05994.04,0,.01,0,.01-.01.02a.20918.20918,0,0,0-.04.06v.02a.188.188,0,0,0-.02.08V37.97a.25657.25657,0,0,0,.14991.24l16.75,8.31a.0098.0098,0,0,0,.01.01.35984.35984,0,0,0,.1101.02.35485.35485,0,0,0,.1-.02.0098.0098,0,0,0,.01-.01l16.75-8.31a.25648.25648,0,0,0,.15-.24V21.03A.188.188,0,0,0,413.51041,20.95Zm-16.99-7.87,16.15992,7.95-5.29993,2.68-16.32-7.94995Zm-6.05,2.7,16.89,8.22-3.76,1.9-17.44006-8Zm16.9,8.24v5.4l-3.68,1.79-.07-5.29Zm-11.12,21.85-16.22-8.06V21.45l16.22,8.21Zm.27-16.66-16.17-8.18,5.78-2.84,16.87,7.74Zm16.48,8.6-16.22,8.06V29.66l6.56995-3.32.07,4.89a.27485.27485,0,0,0,.12011.22.24987.24987,0,0,0,.1399.04.20175.20175,0,0,0,.1101-.03l3.71-1.8a.26925.26925,0,0,0,.1399-.24V24.17l5.3601-2.72Z"/><polygon class="cls-4" points="406.795 24.006 403.6 25.624 386.739 17.889 390.468 16.055 406.795 24.006"/><path class="cls-5" d="M390.47038,15.78l-4.31006,2.12,17.44006,8,3.76-1.9Zm-3.14991,2.1,3.14991-1.55,15.76,7.68-2.64,1.34Z"/><polygon class="cls-4" points="407.121 24.43 407.121 29.26 403.938 30.813 403.869 26.073 407.121 24.43"/><path class="cls-5" d="M403.6204,25.92l.07,5.29,3.68-1.79v-5.4Zm3.25,3.18-2.69006,1.32-.05994-4.19,2.75-1.39Z"/><path class="cls-5" d="M386.9904,34.52a.52721.52721,0,0,1-.46.28.46434.46434,0,0,1-.23-.06l-4.67-2.35a.50988.50988,0,1,1,.46-.91l4.67,2.35A.52315.52315,0,0,1,386.9904,34.52Z"/><path class="cls-5" d="M390.18034,38.48a.52719.52719,0,0,1-.46.28.59252.59252,0,0,1-.23-.05l-7.86-3.97a.50311.50311,0,0,1-.2301-.68.4831.4831,0,0,1,.3-.26.52631.52631,0,0,1,.39.03l7.86,3.96A.52616.52616,0,0,1,390.18034,38.48Z"/><path class="cls-5" d="M390.0004,40.83a.51793.51793,0,0,1-.46.29.50245.50245,0,0,1-.24-.06l-7.85009-3.96a.48309.48309,0,0,1-.26-.3.526.526,0,0,1,.03-.39.4983.4983,0,0,1,.3-.25.44836.44836,0,0,1,.3899.03l7.8601,3.96A.51159.51159,0,0,1,390.0004,40.83Z"/><path class="cls-6" d="M311.8594,29.34334a2.00693,2.00693,0,0,1-1.17888,2.24839l.16887.8258a.80272.80272,0,0,1-1.57289.32165l-.16082-.78645-.78644.16083a.80272.80272,0,0,1-.32165-1.57289l1.96611-.40206a.40136.40136,0,1,0-.16082-.78644l-.78645.16082a2.007,2.007,0,0,1-1.18929-3.81249l-.16886-.82576a.80271.80271,0,1,1,1.57288-.32164l.16083.78644.78644-.16082a.80272.80272,0,1,1,.32165,1.57288l-1.96611.40206a.40136.40136,0,0,0,.16082.78644l.78644-.16082A2.00754,2.00754,0,0,1,311.8594,29.34334Z"/><path class="cls-7" d="M310.27386,33.60975a1.0543,1.0543,0,0,1-1.24211-.82076l-.11071-.5414-.5414.11071a1.05272,1.05272,0,1,1-.42182-2.06276l1.96568-.402a.15133.15133,0,0,0-.06064-.29653l-.78627.16079a2.25716,2.25716,0,0,1-1.52322-4.19833l-.12978-.63466a1.05248,1.05248,0,0,1,2.06229-.42172l.11071.5414.5414-.11072a1.05273,1.05273,0,1,1,.42182,2.06277l-1.96568.402a.15338.15338,0,0,0-.11794.17858.15177.15177,0,0,0,.17858.11794l.78627-.16078a2.25716,2.25716,0,0,1,1.52322,4.19832l.12978.63466A1.0543,1.0543,0,0,1,310.27386,33.60975ZM308.058,30.78528a.55285.55285,0,1,0,.22152,1.08328l1.03115-.21087.21086,1.03115a.5526.5526,0,1,0,1.0828-.22143l-.20979-1.02588.188-.0798a1.75705,1.75705,0,0,0-1.04129-3.33771l-.78627.16079a.65121.65121,0,1,1-.26094-1.276l1.96568-.402a.55284.55284,0,1,0-.22152-1.08327l-1.03115.21086-.21086-1.03114a.54688.54688,0,0,0-.65211-.43069.55335.55335,0,0,0-.43069.65211l.20979,1.02588-.188.0798a1.75705,1.75705,0,0,0,1.04129,3.33771l.78627-.16078a.65121.65121,0,1,1,.26094,1.276Z"/><path class="cls-8" d="M307.65061,20.7817a8.02719,8.02719,0,1,0,9.47266,6.25621A8.04041,8.04041,0,0,0,307.65061,20.7817Zm2.8948,14.156a6.42175,6.42175,0,1,1,5.005-7.57813A6.43029,6.43029,0,0,1,310.54541,34.93769Z"/><path class="cls-6" d="M297.03535,28.94464a2.15949,2.15949,0,1,0,2.54838,1.683A2.16323,2.16323,0,0,0,297.03535,28.94464Zm.643,3.14418a1.05478,1.05478,0,1,1,.81813-1.23882A1.05822,1.05822,0,0,1,297.67832,32.08882Z"/><path class="cls-6" d="M320.62151,24.12142a2.15949,2.15949,0,1,0,2.54831,1.683A2.15476,2.15476,0,0,0,320.62151,24.12142Zm.643,3.14419a1.05478,1.05478,0,0,1-.42264-2.06677,1.05478,1.05478,0,1,1,.42264,2.06677Z"/><path class="cls-9" d="M325.88449,13.77947,288.13493,21.499a2.40864,2.40864,0,0,0-1.87988,2.83353l3.53928,17.30759a2.4172,2.4172,0,0,0,2.84334,1.87788l37.74956-7.71953a2.41719,2.41719,0,0,0,1.87787-2.84334l-3.53928-17.30759A2.40865,2.40865,0,0,0,325.88449,13.77947ZM287.83207,24.01c-.46321-1.46659,4.64434-1.4906,5.28573-1.89724a6.3932,6.3932,0,0,1-4.3303,6.56943ZM292.31518,41.941c-1.47841.45542-1.49061-4.64434-1.89725-5.28573a6.47025,6.47025,0,0,1,6.56944,4.3303Zm38.3729-8.66335c.45541,1.47841-4.64434,1.49061-5.28573,1.89725a6.38787,6.38787,0,0,1,1.04537-4.02l-.002-.0098a6.46317,6.46317,0,0,1,3.28893-2.52979Zm-1.27791-6.24915a8.093,8.093,0,0,0-5.59659,8.46114l.002.00974-25.24144,5.16171-.0118-.00774a8.08368,8.08368,0,0,0-8.46889-5.58485L289.112,30.269a8.0937,8.0937,0,0,0,5.59459-8.47088.00981.00981,0,0,0,.0078-.01181l25.24144-5.16171.002.00981a8.0937,8.0937,0,0,0,8.47089,5.59459Zm-1.30595-6.38624a6.50634,6.50634,0,0,1-4.02-1.04538,6.38481,6.38481,0,0,1-2.5416-3.29673l4.66238-.95343C327.67357,14.89328,327.69558,19.991,328.10422,20.64223Z"/><path class="cls-4" d="M307.9231,22.10571a6.67343,6.67343,0,1,0,7.87119,5.207A6.68175,6.68175,0,0,0,307.9231,22.10571Zm2.67991,10.3606a.54832.54832,0,0,1-.42853.64893.54212.54212,0,0,1-.64894-.4286l-.21032-1.02845-1.03825.21232a.55489.55489,0,0,1-.22233-1.08723l1.96878-.4026a.64984.64984,0,1,0-.26038-1.27333l-.78358.16024a1.75693,1.75693,0,0,1-1.03985-3.33857l.18784-.07921-.21031-1.02845a.54826.54826,0,0,1,.4286-.64888.54205.54205,0,0,1,.64887.42854l.21232,1.03826,1.02845-.21031a.54995.54995,0,1,1,.22033,1.07742l-1.959.4006a.64983.64983,0,1,0,.26038,1.27332l.78358-.16024a1.75694,1.75694,0,0,1,1.03991,3.33856l-.1879.07922Z"/><path class="cls-10" d="M62.02,12.56H57.54a1.15591,1.15591,0,0,0-1.12.87l-1.09,2.82H26.65a1.21456,1.21456,0,0,0-1.19,1.2,1.42581,1.42581,0,0,0,.06.35l4.96,15.14a1.17,1.17,0,0,0,1.12.84H51.48a2.66254,2.66254,0,0,1,2.34,2.97,2.69711,2.69711,0,0,1-2.47,2.37H33.36a3.59509,3.59509,0,1,0,3.62,3.61,3.708,3.708,0,0,0-.22-1.23h9.17a3.60326,3.60326,0,0,0,6.77,2.47,3.53692,3.53692,0,0,0-.1-2.71,5.02147,5.02147,0,0,0,.3-9.51l4.37-13.93V17.8l1.1-2.86h3.65a1.16955,1.16955,0,0,0,1.18-1.18A1.18655,1.18655,0,0,0,62.02,12.56ZM33.38,44.01A1.23341,1.23341,0,0,1,32.14,42.77a1.235,1.235,0,1,1,2.47,0A1.23126,1.23126,0,0,1,33.38,44.01ZM50.55,42.8a1.23512,1.23512,0,0,1-2.47-.03,1.235,1.235,0,1,1,2.47,0Zm-.04-11.34H32.47l-4.2-12.83H54.54Z"/><path class="cls-11" d="M50.55,42.77v.03a1.23512,1.23512,0,0,1-2.47-.03,1.235,1.235,0,1,1,2.47,0Z"/><path class="cls-11" d="M34.61,42.77a1.235,1.235,0,1,1-2.47,0,1.235,1.235,0,1,1,2.47,0Z"/><rect class="cls-6" x="34.8346" y="17.26694" width="0.74992" height="15.06257" transform="translate(-3.51306 5.95084) rotate(-9.20369)"/><rect class="cls-6" x="40.54546" y="24.42327" width="15.06257" height="0.74992" transform="translate(15.89804 68.28221) rotate(-80.783)"/><polygon class="cls-6" points="41.417 32.261 41.31 17.151 42.058 17.093 42.165 32.204 41.417 32.261"/><polygon class="cls-6" points="53.402 27.996 30.218 27.996 29.655 27.246 53.402 27.246 53.402 27.996"/><polygon class="cls-6" points="54.413 23.246 29.033 23.246 28.528 22.496 54.542 22.496 54.413 23.246"/><path class="cls-12" d="M224.56,23.17h-7.04a.585.585,0,0,0,0,1.17h7.04a.585.585,0,0,0,0-1.17Zm0,3.52h-7.04a.585.585,0,0,0,0,1.17h7.04a.585.585,0,0,0,0-1.17Zm0,3.52h-7.04a.585.585,0,0,0,0,1.17h7.04a.585.585,0,0,0,0-1.17Zm-7.04-5.87h7.04a.585.585,0,0,0,0-1.17h-7.04a.585.585,0,0,0,0,1.17Zm7.04,2.35h-7.04a.585.585,0,0,0,0,1.17h7.04a.585.585,0,0,0,0-1.17Zm0,3.52h-7.04a.585.585,0,0,0,0,1.17h7.04a.585.585,0,0,0,0-1.17Zm13.46-6.6a2.94029,2.94029,0,0,0-1.46-2.21C232.8,19.25,221.33,12.7,221.33,12.7a.55077.55077,0,0,0-.58,0s-11.47,6.55-15.23,8.7a2.94019,2.94019,0,0,0-1.46,2.21c-.02.07-.02,12.3-.02,17.73a5.292,5.292,0,0,0,5.28,5.28h23.44a5.292,5.292,0,0,0,5.28-5.28S238.04,23.68,238.02,23.61ZM206.1,22.42l14.94-8.54,14.94,8.54a1.77119,1.77119,0,0,1,.84,1.11l-7.57,6.49V22.59a2.93629,2.93629,0,0,0-2.93-2.94H215.76a2.93631,2.93631,0,0,0-2.93,2.94v7.43l-7.57-6.49A1.77115,1.77115,0,0,1,206.1,22.42Zm21.97.17v8.44l-7.03,6.02-7.03-6.02V22.59A1.74139,1.74139,0,0,1,215.76,20.83h10.56a1.74139,1.74139,0,0,1,1.75,1.76Zm8.8,18.75A4.09716,4.09716,0,0,1,232.76,45.45H209.32A4.09706,4.09706,0,0,1,205.21,41.34V25.03l15.45,13.24a.57793.57793,0,0,0,.76,0l15.45-13.24ZM224.56,23.17h-7.04a.585.585,0,0,0,0,1.17h7.04a.585.585,0,0,0,0-1.17Zm0,3.52h-7.04a.585.585,0,0,0,0,1.17h7.04a.585.585,0,0,0,0-1.17Zm0,3.52h-7.04a.585.585,0,0,0,0,1.17h7.04a.585.585,0,0,0,0-1.17Z"/><path class="cls-13" d="M227.56,21.34a1.75639,1.75639,0,0,0-1.24-.50995H215.76a1.74139,1.74139,0,0,0-1.75,1.76v8.44l7.03,6.02,7.03-6.02V22.59A1.76217,1.76217,0,0,0,227.56,21.34Zm-3,10.04h-7.04a.585.585,0,0,1,0-1.17h7.04a.585.585,0,0,1,0,1.17Zm0-3.52h-7.04a.585.585,0,0,1,0-1.17h7.04a.585.585,0,0,1,0,1.17Zm0-3.52h-7.04a.585.585,0,0,1,0-1.17h7.04a.585.585,0,0,1,0,1.17Z"/><path class="cls-14" d="M141.95087,12.7H120.15845A1.96325,1.96325,0,0,0,118.19,14.66845v28.19a1.96329,1.96329,0,0,0,1.96844,1.96844h21.79242A1.97243,1.97243,0,0,0,143.93,42.85841v-28.19A1.97239,1.97239,0,0,0,141.95087,12.7Zm.3637,30.1584v.01064a.34326.34326,0,0,1-.3637.34235H120.14781a.35611.35611,0,0,1-.35306-.353V14.65774a.34955.34955,0,0,1,.3637-.34235h21.80306a.34935.34935,0,0,1,.35306.35306Z"/><path class="cls-14" d="M124.82294,39.574h-2.61038V36.96366h2.61038Zm0-5.09238h-2.61038V31.87127h2.61038Zm0-5.08167h-2.61038V26.7896h2.61038Zm0-5.08168h-2.61038V21.70793h2.61038Zm0-5.08167h-2.61038V16.62625h2.61038ZM139.15857,34.5779H127.551V33.123h11.60759Zm0,4.41842H127.551V37.54137h11.60759Zm0-9.51074H127.551v-1.4443h11.60759Zm0-5.08167H127.551v-1.455h11.60759Zm0-5.08167H127.551v-1.455h11.60759Z"/><path class="cls-5" d="M142.31729,36.021a5.31289,5.31289,0,1,0,5.31289,5.31289A5.25782,5.25782,0,0,0,142.31729,36.021Zm0,9.61741a4.251,4.251,0,1,1,4.24779-4.2541A4.19177,4.19177,0,0,1,142.31729,45.63842Z"/><path class="cls-15" d="M146.75522,41.33062a4.37941,4.37941,0,0,1-4.43794,4.44453,4.44126,4.44126,0,1,1,4.43794-4.44453Z"/><path class="cls-16" d="M145.3991,40.40588l-3.61755,3.61124a.464.464,0,0,1-.37186.15756h-.05043a.53414.53414,0,0,1-.37182-.208l-1.75207-2.231a.573.573,0,0,1,.10713-.75.58029.58029,0,0,1,.74371.10713l1.38022,1.75838,3.189-3.189a.52586.52586,0,1,1,.74368.74367Z"/></svg>